Coordinates
version=1
nRows=9
nColumns=24
inDegrees=yes

Units are S.I. units (second, meters, Newtons, ...)
Angles are in degrees.

endheader
time	pelvis_tilt	pelvis_list	pelvis_rotation	pelvis_tx	pelvis_ty	pelvis_tz	hip_flexion_r	hip_adduction_r	hip_rotation_r	knee_angle_r	ankle_angle_r	subtalar_angle_r	mtp_angle_r	hip_flexion_l	hip_adduction_l	hip_rotation_l	knee_angle_l	ankle_angle_l	subtalar_angle_l	mtp_angle_l	lumbar_extension	lumbar_bending	lumbar_rotation
     25.11000000	     -7.32157541	      5.06403320	      2.80580351	     -0.88057161	     -0.00390516	     -0.30554506	     27.23723814	    -11.04796195	     -9.92447432	    -69.03183367	    -16.87086652	      4.35904658	     36.09520324	     11.32230555	     11.03256148	     14.79469573	    -13.90401878	      0.97247013	     -8.26772113	      2.41959011	      5.67247345	     -7.54501679	     -1.49277929
     25.11500000	     -7.25952271	      4.75590489	      3.03006721	     -0.87567952	     -0.00321611	     -0.30586847	     27.83843342	    -10.79031938	    -10.14400454	    -68.66115635	    -16.31500301	      4.51049214	     36.35672924	     10.74277767	     10.70614618	     15.13681270	    -13.59224581	      1.17629677	     -8.24417217	      2.32567140	      5.54559745	     -7.24831422	     -1.87377145
     25.12000000	     -7.12650718	      4.50543367	      3.34645734	     -0.87090407	     -0.00249902	     -0.30632539	     28.31719085	    -10.64728889	    -10.43432217	    -68.21973490	    -15.68269790	      4.69376608	     36.66885009	     10.09394756	     10.44952931	     15.52153230	    -13.28741620	      1.33418573	     -8.15412580	      2.20360722	      5.30276496	     -7.01077094	     -2.39384242
     25.12500000	     -7.06046153	      4.23652116	      3.56251749	     -0.86605321	     -0.00191008	     -0.30665539	     28.88187739	    -10.43130562	    -10.64025764	    -67.71867147	    -15.14197375	      4.80076989	     36.85734596	      9.50175962	     10.13962951	     15.79315200	    -12.92946440	      1.53468075	     -8.07478707	      2.19772733	      5.17358352	     -6.74199236	     -2.73392693
     25.13000000	     -6.92081253	      4.01016920	      3.84480892	     -0.86132199	     -0.00127526	     -0.30702468	     29.32799536	    -10.28710625	    -10.88934190	    -67.14559685	    -14.55889096	      4.92350569	     37.03267126	      8.84148916	      9.87076486	     16.07516833	    -12.57837822	      1.68293221	     -7.91171579	      2.22737403	      4.92570040	     -6.52614329	     -3.20618296
     25.13500000	     -6.80002480	      3.78912073	      4.08175412	     -0.85657001	     -0.00073417	     -0.30733254	     29.78942885	    -10.12037182	    -11.09103531	    -66.51317130	    -14.01684188	      4.98765332	     37.12038777	      8.19599573	      9.59016357	     16.29358975	    -12.20138830	      1.85011865	     -7.77063827	      2.32850512	      4.71541513	     -6.30805824	     -3.59176930
     25.14000000	     -6.73658667	      3.57080751	      4.27648650	     -0.85179444	     -0.00030565	     -0.30756612	     30.30762686	     -9.92807514	    -11.23883896	    -65.81930298	    -13.52961659	      5.01816390	     37.15693641	      7.60818959	      9.29961492	     16.47544875	    -11.80554801	      2.01757786	     -7.64372057	      2.44891714	      4.58462682	     -6.09226627	     -3.89575367
     25.14500000	     -6.61991600	      3.36582035	      4.51195712	     -0.84706487	      0.00012713	     -0.30782673	     30.72854714	     -9.76328557	    -11.41600330	    -65.05212067	    -13.01933187	      5.04432072	     37.13711885	      6.97331532	      9.02037097	     16.66648886	    -11.42273057	      2.17201497	     -7.48035089	      2.62404965	      4.37917562	     -5.89210984	     -4.27102269
     25.15000000	     -6.50090123	      3.18616209	      4.71883874	     -0.84233884	      0.00049539	     -0.30803064	     31.13448360	     -9.60189775	    -11.55025474	    -64.22712744	    -12.53013616	      5.02744751	     37.04546386	      6.33663234	      8.75872302	     16.82999448	    -11.03502912	      2.30553530	     -7.34849133	      2.81224044	      4.17438479	     -5.70965954	     -4.61242946
